<svg width="570" height="1" viewBox="0 0 570 1" fill="none" xmlns="http://www.w3.org/2000/svg"><path fill-rule="evenodd" clip-rule="evenodd" d="M2.5 1H0V0h2.5v1zm10-1h-5v1h5V0zM570 0h-2.5v1h2.5V0zM17.5 0v1h5V0h-5zm10 0v1h5V0h-5zm10 0v1h5V0h-5zm10 0v1h5V0h-5zm10 0v1h5V0h-5zm10 0v1h5V0h-5zm10 0v1h5V0h-5zm10 0v1h5V0h-5zm10 0v1h5V0h-5zm10 0v1h5V0h-5zm10 0v1h5V0h-5zm10 0v1h5V0h-5zm10 0v1h5V0h-5zm10 0v1h5V0h-5zm10 0v1h5V0h-5zm10 0v1h5V0h-5zm10 0v1h5V0h-5zm10 0v1h5V0h-5zm10 0v1h5V0h-5zm10 0v1h5V0h-5zm10 0v1h5V0h-5zm10 0v1h5V0h-5zm10 0v1h5V0h-5zm10 0v1h5V0h-5zm10 0v1h5V0h-5zm10 0v1h5V0h-5zm10 0v1h5V0h-5zm10 0v1h5V0h-5zm10 0v1h5V0h-5zm10 0v1h5V0h-5zm10 0v1h5V0h-5zm10 0v1h5V0h-5zm10 0v1h5V0h-5zm10 0v1h5V0h-5zm10 0v1h5V0h-5zm10 0v1h5V0h-5zm10 0v1h5V0h-5zm10 0v1h5V0h-5zm10 0v1h5V0h-5zm10 0v1h5V0h-5zm10 0v1h5V0h-5zm10 0v1h5V0h-5zm10 0v1h5V0h-5zm10 0v1h5V0h-5zm10 0v1h5V0h-5zm10 0v1h5V0h-5zm10 0v1h5V0h-5zm10 0v1h5V0h-5zm10 0v1h5V0h-5zm10 0v1h5V0h-5zm10 0v1h5V0h-5zm10 0v1h5V0h-5zm10 0v1h5V0h-5zm10 0v1h5V0h-5zm10 0v1h5V0h-5z" fill="#ACACAC"/></svg>