<svg width="324" height="94" viewBox="0 0 324 94" fill="none" xmlns="http://www.w3.org/2000/svg"><path d="M258.316 90.751l-2.092-5.888c6.983-2.607 10.167 3.272 16.165-1.412l-.339 1.27c.863 1.359 1.429-11.794 10.903 4.337v.586c.334-.1.337-1.272.994.29l-1.637-3.595c.999-1.47 1.879-4.27 3.201-4.665.274.911.406 1.85.392 2.792l3.244-.97.982 3.79c.996-2.052.566-10.043 3.201-5.587-.985-5.547 1.319-3.323.998-6.145.13.685.434 1.708.676 2.665a9.145 9.145 0 003.282-1.994 7.746 7.746 0 001.982-3.041 128.707 128.707 0 01-7.758-17.624c2.208 1.51.582-.678.152-2.544l-.149 1.381c-1.313-1.357-1.302-4.846-1.959-5.83 0 .281.025.623.036.97l.086-.47c.055.464.039.934-.047 1.395 0 .749-.05 1.337-.409 1.13l.072-.37c-.552.51-1.498-.04-1.912-.292v-2.923c-.999 5.574 32.811-10.21 31.517-10.407-1.285-3.698 18.946-11.884-20.159-6.836 34.331-14.533 17.744-26.492-9.062-11.75-1.617-1.844-.872-2.573-1.529-2.382l-2.141-2.001c1.136-.342-.891-1.422-1.103-2.554-1.683-.507-8.398-2.953-8.977 2.877-2.243-2.808-4.32-.027-5.305-.323.478 1.03 1.383-17.654-6.366-1.956-.883-2.58-4.081-1.177-3.714-.598-1.426 2.532-4.287 3.945-4.665 10.352V21.26c-.387 4.764-1.556 2.45-2.566 5.074l1.007 4.814-2.264-2.949c-.383-1.103.779 2.722.981 1.583-1.625 2.18-3.805-.47-5.717-1.132l5.717-1.914c-1.587-3.022-1.158-12.392-1.555-8.21l-4.162 2.256c-3.106-8.394-5.203 5.553-6.447 3.02l-2.566 4.79 5.131-9.579c-1.429-2.262-6.087 5.036-6.941 2.56l-.017.128c.095.228.144.469.147.712l-.23.111c-.245 2.373-1.125 3.984-2.27 3.81-1.611-.696-2.96 2.794-5.446-2.288l-.759 4.859-1.884-2.932.091-3.877c1.903.261 5.518-1.156 7.981-1.314l.08-1.769c-1.451-.017-3.142 1.672-4.094 1.27a12.06 12.06 0 01-.632-7.43l-.982 3.778c-4.856.36-4.897.531-9.836-3.957l.387 1.956c-1.032 1.122-2.061 2.215-2.257-.943-3.016-.702-6.092-3.21-7.913-8.158l-.565 4.558c-.632-.267-1.38-7.183-1.888-.8l-1.429 1.98c-.863-.371-1.478 2.224-2.394-.422v-.012l-.171-.543v.38c-1.918-2.069-.111 4.09-2.296 1.406-.624-3.264-.99 5.774-2.064 4.71l-.896-6.576c-1.876-3.809-2.439 2.75-5.342 2.697A21.95 21.95 0 01192.12 0c-1.476 5.973-.712 3.899-2.483 6.736a14.26 14.26 0 01.477-5.202c-1.379-2.93-.998 2.205-2.119 2.026-.493 4.64-1.142 12.03-1.52 12.319l.384 1.454c-1.286 2.45-2.638 3.569-3.94 1.194l.141-2.338-1.523 1.141.019-2.992-2.146.862.259.815c-.511.38-2.18 1.361-3.049-.228l.1-1.66c-2.414-5.263-4.851 1.47-7.955 1.912l.552-3.376c-.905-3.407-.51 5.208-1.685 3.48l.115-4.168c-1.332 5.438-1.379-1.211-2.036-3.307l.119 5.469-1.38-1.212c-1.489-1.863-.656-6.928-.303-9.777l-1.255 4.262V2.588c-1.029 5.573-.737-.928-2.238 2.03-.03-1.827.362-2.859-.066-3.651l-2.56 6.714 1.495-2.963-.486 7.027c-1.655 5.292-1.884-.834-2.987 1.095l.794-2.067c-1.73 1.65-1.677-1.347-2.536-2.939a6.262 6.262 0 01-.135 4.175c-.507.37-.149-2.484-.576-3.276-.331 4.684-1.636 7.129-2.605 4.875.028-.58.09-1.158.188-1.732-.309.749-.511 1.95-.933.807l.533-5.2-1.159 4.923c-.552-1.453-1.619 2.295-1.379-1.211l.397-1.03-4.572-1.44.146-4.172c-.747 5.719-2.408-2.278-2.623 4.888-.671-3.938-3.587 2.624-2.649-5.433-3.004-.744-5.068 6.971-8.553 2.874-.938-6.911-4.662-4.847-6.991-5.678a109.439 109.439 0 01-12.826 7.073c-2.257-9.692-7.322 2.947-10.051-2.604l-1.087 3.755c-1.655-6.137-5.242 1.096-7.725-4.955a7.763 7.763 0 01-1.38 2.256 8.622 8.622 0 01.166 3.334c-.704-1.737-2.503.293-2.056-4.514l.243-.485c.453-4.807-2.635 2.118-3.255-2.1l.138 5.185-1.487-.955.485-.969c-7.548 11.098-9.403-5.45-16.49 4.64 1.26-5.573-1.47 2.884-1.087-3.27-1.004-7.828-3.076 1.497-4.544 3.484-.03.378-.09.753-.18 1.124l-2.229-.87c1.97-7.693-2.149 6.351-.378-.187-5.498-6.181-13.742-.746-20.416-3.877l.132 2.019c-1.713-.5-4.097 1.78-5.148-1.502-1.051-3.284-3.344 4.877-3.887 5.16-1.758 3.342-2.483-3.588-1.887-3.193-1.636.848-3.736 7.846-5.626 4.655-.14-6.627-6.483 6.043-5.874-1.381l-.08.625c-2.281-5.425-5.719 3.276-8.257-1.67 0 0 .107-.54.256-1.032L.635 33.018 0 57.91l3.44 20.5 14.94-3.328 10.928 8.651 28.52-.887 2.447-5.478c4.823 10.102 12.777-.728 18.264 6.566l.464-4.81c1.705-.196 1.38 2.782 1.743 3.635 15.801-.204 32.324-5.893 46.111.8 1.189 3.254 5.441 1.54 6.332 4.953 1.464-2.062 3.665-3.64 6.258-4.486a14.16 14.16 0 018.075-.194l-.202.524 2.207-.85c.069.445.059.898-.03 1.342 2.643-4.188 6.29.172 9.212 2.013l-.199.519c17.465 1.493 33.969-7.073 51.077.048 7.855 8.048 17.506-2.631 26.607 4.061 1.623 4.895 20.447 1.508 22.122-.739z" fill="#FF612E"/></svg>