<svg width="67" height="87" viewBox="0 0 67 87" fill="none" xmlns="http://www.w3.org/2000/svg"><path d="M0 0h67v87L33.5 63.5 0 87V0z" fill="url(#paint0_linear_198_24)"/><path fill-rule="evenodd" clip-rule="evenodd" d="M65 83l-1.575-1.099.572-.82.003.002v-.133h1V83zM6.725 79.704l3.15-2.197-.572-.82-3.15 2.197.572.82zm6.3-4.395l3.15-2.197-.572-.82-3.15 2.197.572.82zm6.3-4.395l-.572-.82 3.15-2.197.572.82-3.15 2.197zm6.3-4.395l-.572-.82 3.15-2.197.572.82-3.15 2.197zm12.6-2.197l.572-.82 3.15 2.197-.572.82-3.15-2.197zm6.3 4.395l.572-.82 3.15 2.197-.572.82-3.15-2.197zm6.3 4.395l.572-.82 3.15 2.197-.572.82-3.15-2.197zm6.3 4.395l.572-.82 3.15 2.197-.572.82-3.15-2.197zm-22.05-15.382l.572-.82-2.147-1.498-2.147 1.497.572.82 1.575-1.098 1.575 1.099zM3.575 81.9l-.572-.82-.003.002v-.133H2V83l1.575-1.099zM2 76.85h1v-4.1H2v4.1zm0-8.2h1v-4.1H2v4.1zm0-8.2h1v-4.1H2v4.1zm0-8.2h1v-4.1H2v4.1zm0-8.2h1v-4.1H2v4.1zm0-8.2h1v-4.1H2v4.1zm0-8.2h1v-4.1H2v4.1zm0-8.2h1v-4.1H2v4.1zm0-8.2h1v-4.1H2v4.1zm0-8.2h1V2h.969V1H2v2.05zM7.906 1v1h3.938V1H7.906zm7.875 0v1h3.938V1H15.78zm7.875 0v1h3.938V1h-3.938zm7.875 0v1h3.938V1H31.53zm7.875 0v1h3.938V1h-3.938zm7.875 0v1h3.938V1H47.28zm7.875 0v1h3.938V1h-3.938zm7.875 0v1H64v1.05h1V1h-1.969zM65 7.15h-1v4.1h1v-4.1zm0 8.2h-1v4.1h1v-4.1zm0 8.2h-1v4.1h1v-4.1zm0 8.2h-1v4.1h1v-4.1zm0 8.2h-1v4.1h1v-4.1zm0 8.2h-1v4.1h1v-4.1zm0 8.2h-1v4.1h1v-4.1zm0 8.2h-1v4.1h1v-4.1zm0 8.2h-1v4.1h1v-4.1z" fill="#fff"/><defs><linearGradient id="paint0_linear_198_24" x1="12.182" y1="-16.5" x2="43.193" y2="-14.575" gradientUnits="userSpaceOnUse"><stop stop-color="#FC3C00"/><stop offset=".995" stop-color="#F01414"/></linearGradient></defs></svg>